<mxfile host="app.diagrams.net" agent="Mozilla/5.0 (Windows NT 10.0; Win64; x64) AppleWebKit/537.36 (KHTML, like Gecko) Chrome/130.0.0.0 Safari/537.36" version="24.8.6">
  <diagram name="Trang-1" id="HPS5PHWqfH4obst3pFLA">
    <mxGraphModel grid="1" page="1" gridSize="10" guides="1" tooltips="1" connect="1" arrows="1" fold="1" pageScale="1" pageWidth="827" pageHeight="1169" math="0" shadow="0">
      <root>
        <mxCell id="0" />
        <mxCell id="1" parent="0" />
        <mxCell id="UmYDPoNrw6ezrw-Y87aA-4" value="" style="edgeStyle=orthogonalEdgeStyle;rounded=0;orthogonalLoop=1;jettySize=auto;html=1;" edge="1" parent="1" source="TD8AhxuxRh3lvtZz72DM-1" target="UmYDPoNrw6ezrw-Y87aA-3">
          <mxGeometry relative="1" as="geometry" />
        </mxCell>
        <mxCell id="TD8AhxuxRh3lvtZz72DM-1" value="&lt;font style=&quot;vertical-align: inherit;&quot;&gt;&lt;font style=&quot;vertical-align: inherit;&quot;&gt;&lt;font style=&quot;vertical-align: inherit;&quot;&gt;&lt;font style=&quot;vertical-align: inherit;&quot;&gt;Bắt đầu&lt;/font&gt;&lt;/font&gt;&lt;/font&gt;&lt;/font&gt;" style="ellipse;whiteSpace=wrap;html=1;" vertex="1" parent="1">
          <mxGeometry x="354" y="30" width="120" height="80" as="geometry" />
        </mxCell>
        <mxCell id="UmYDPoNrw6ezrw-Y87aA-6" value="" style="edgeStyle=orthogonalEdgeStyle;rounded=0;orthogonalLoop=1;jettySize=auto;html=1;" edge="1" parent="1" source="UmYDPoNrw6ezrw-Y87aA-3" target="UmYDPoNrw6ezrw-Y87aA-5">
          <mxGeometry relative="1" as="geometry" />
        </mxCell>
        <mxCell id="UmYDPoNrw6ezrw-Y87aA-3" value="Nhập a, b" style="shape=parallelogram;perimeter=parallelogramPerimeter;whiteSpace=wrap;html=1;fixedSize=1;" vertex="1" parent="1">
          <mxGeometry x="354" y="210" width="120" height="60" as="geometry" />
        </mxCell>
        <mxCell id="UmYDPoNrw6ezrw-Y87aA-7" style="edgeStyle=orthogonalEdgeStyle;rounded=0;orthogonalLoop=1;jettySize=auto;html=1;" edge="1" parent="1" target="UmYDPoNrw6ezrw-Y87aA-8">
          <mxGeometry relative="1" as="geometry">
            <mxPoint x="460" y="510" as="targetPoint" />
            <mxPoint x="360" y="440" as="sourcePoint" />
            <Array as="points">
              <mxPoint x="414" y="440" />
              <mxPoint x="460" y="440" />
            </Array>
          </mxGeometry>
        </mxCell>
        <mxCell id="UmYDPoNrw6ezrw-Y87aA-9" value="" style="edgeStyle=orthogonalEdgeStyle;rounded=0;orthogonalLoop=1;jettySize=auto;html=1;" edge="1" parent="1" source="UmYDPoNrw6ezrw-Y87aA-5" target="UmYDPoNrw6ezrw-Y87aA-8">
          <mxGeometry relative="1" as="geometry" />
        </mxCell>
        <mxCell id="UmYDPoNrw6ezrw-Y87aA-18" value="" style="edgeStyle=orthogonalEdgeStyle;rounded=0;orthogonalLoop=1;jettySize=auto;html=1;" edge="1" parent="1" source="UmYDPoNrw6ezrw-Y87aA-5" target="UmYDPoNrw6ezrw-Y87aA-10">
          <mxGeometry relative="1" as="geometry" />
        </mxCell>
        <mxCell id="UmYDPoNrw6ezrw-Y87aA-5" value="Kiểm tra điều kiện a&amp;lt;b" style="rounded=0;whiteSpace=wrap;html=1;" vertex="1" parent="1">
          <mxGeometry x="354" y="350" width="120" height="60" as="geometry" />
        </mxCell>
        <mxCell id="UmYDPoNrw6ezrw-Y87aA-15" value="" style="edgeStyle=orthogonalEdgeStyle;rounded=0;orthogonalLoop=1;jettySize=auto;html=1;" edge="1" parent="1" source="UmYDPoNrw6ezrw-Y87aA-8" target="UmYDPoNrw6ezrw-Y87aA-12">
          <mxGeometry relative="1" as="geometry" />
        </mxCell>
        <mxCell id="UmYDPoNrw6ezrw-Y87aA-8" value="a &amp;lt; b" style="rhombus;whiteSpace=wrap;html=1;" vertex="1" parent="1">
          <mxGeometry x="420" y="470" width="80" height="80" as="geometry" />
        </mxCell>
        <mxCell id="UmYDPoNrw6ezrw-Y87aA-14" value="" style="edgeStyle=orthogonalEdgeStyle;rounded=0;orthogonalLoop=1;jettySize=auto;html=1;" edge="1" parent="1" source="UmYDPoNrw6ezrw-Y87aA-10" target="UmYDPoNrw6ezrw-Y87aA-12">
          <mxGeometry relative="1" as="geometry" />
        </mxCell>
        <mxCell id="UmYDPoNrw6ezrw-Y87aA-10" value="b &amp;lt; a" style="rhombus;whiteSpace=wrap;html=1;" vertex="1" parent="1">
          <mxGeometry x="320" y="470" width="80" height="80" as="geometry" />
        </mxCell>
        <mxCell id="UmYDPoNrw6ezrw-Y87aA-17" value="" style="edgeStyle=orthogonalEdgeStyle;rounded=0;orthogonalLoop=1;jettySize=auto;html=1;" edge="1" parent="1" source="UmYDPoNrw6ezrw-Y87aA-12" target="UmYDPoNrw6ezrw-Y87aA-16">
          <mxGeometry relative="1" as="geometry" />
        </mxCell>
        <mxCell id="UmYDPoNrw6ezrw-Y87aA-12" value="In kết quả" style="shape=parallelogram;perimeter=parallelogramPerimeter;whiteSpace=wrap;html=1;fixedSize=1;" vertex="1" parent="1">
          <mxGeometry x="354" y="600" width="120" height="60" as="geometry" />
        </mxCell>
        <mxCell id="UmYDPoNrw6ezrw-Y87aA-16" value="Kết thúc" style="ellipse;whiteSpace=wrap;html=1;" vertex="1" parent="1">
          <mxGeometry x="354" y="700" width="120" height="80" as="geometry" />
        </mxCell>
      </root>
    </mxGraphModel>
  </diagram>
</mxfile>
